<?xml version="1.0" encoding="UTF-8"?>
<svg id="Layer_1" xmlns="http://www.w3.org/2000/svg" version="1.1" viewBox="0 0 43.5 122.9">
  <!-- Generator: Adobe Illustrator 29.0.1, SVG Export Plug-In . SVG Version: 2.1.0 Build 192)  -->
  <defs>
    <style>
      .st0 {
        fill: #fff;
        fill-rule: evenodd;
      }
    </style>
  </defs>
  <path class="st0" d="M11.4,45.6c2.5-2.8,5-5.5,7.7-8-1.3-3.9-2-7.9-2.2-12-.2-7.2.9-14.9,5-21,1.1-1.8,3.1-4.9,5.3-4.6,1.8.2,2.8,2.8,3.5,4.3,4.9,10,5.9,20.5.2,31.9-2.1,4-4.7,7.6-7.8,10.8l2.4,12.1c.3,0,.6-.1.9-.1,2.9-.4,5.9,0,8.6,1.4,5.6,3,9.1,10.6,8.5,16.8-.5,5.5-3,9.3-7.2,12.6-1.3,1.1-2.7,2-4.2,2.8l2.9,14.6c.1,1.2.2,2.5.1,3.7-.3,7.7-6.4,12.2-13.8,11.8-5.7-.4-11.7-4.9-11.7-10.6,0-11.1,15-10.6,13.9-.4-.3,3-2.5,5.7-7.2,5.8,3.8,6.3,15.5,1.8,16.3-6.4.1-2.1,0-4.2-.7-6.2l-2.2-11.3c-1,.3-2,.5-3.1.7-6.6.7-13.2-1.3-18.1-5.7-6.8-6.1-9.8-15.4-8-24.3,1.5-7.6,5.9-13.1,10.9-18.7ZM21.2,36.1c-2.1-7.5-1.8-17.1,3.6-23.3s11.2,2.2,3.5,14.7c-2,3.1-4.3,6-7,8.7h0ZM21.2,49.1c-.7.7-1.4,1.3-2.1,2-4,3.8-8,7.5-11,13-3,5.2-3.5,11.5-1.5,17.2,2.4,7.5,14,12.2,22.6,9.9l-4.5-23.6c-3.7,1-6.5,4.2-7.1,8-.4,3,.8,5.9,3.1,7.8.6.5,1.2.9,1.8,1.4,1.2.8.6,1.4-.5,1.1-3.9-1.3-6.2-3.4-7.4-6.2-3.7-8.1.8-17.1,8.7-19.9l-2.1-10.7h0ZM31.6,90.4l-4.5-23.2c1.6,0,3.1.3,4.5,1,3.4,1.6,5.8,4.6,6.6,8.2,1.2,5.6-1.7,11.7-6.5,13.9h-.1c0,0,0,0,0,0Z"/>
</svg>